PathFileType	3	(X/Y/Z)	D:\Vicon Setup\UG\Test1\New Session\NewSession15.trc
DataRate	CameraRate	NumFrames	NumMarkers	Units	OrigDataRate	OrigDataStartFrame	OrigNumFrames
100.0	100.0	8	27	mm	100.0	496	359	
Frame#	Time	Sternum			LShoulder			RShoulder			LASIS			RASIS			RPSIS			LPSIS			RKneeLateral			RKneeMedial			RFibulaHead			RMidShank			RAnkleLateral			RAnkleMedial			RHeel			RMT5			RMT2			RToe			LKneeLateral			LKneeMedial			LFibulaHead			LMidShank			LAnkleLateral			LAnkleMedial			LHeel			LMT5			LMT2			LToe			
		X1	Y1	Z1	X2	Y2	Z2	X3	Y3	Z3	X4	Y4	Z4	X5	Y5	Z5	X6	Y6	Z6	X7	Y7	Z7	X8	Y8	Z8	X9	Y9	Z9	X10	Y10	Z10	X11	Y11	Z11	X12	Y12	Z12	X13	Y13	Z13	X14	Y14	Z14	X15	Y15	Z15	X16	Y16	Z16	X17	Y17	Z17	X18	Y18	Z18	X19	Y19	Z19	X20	Y20	Z20	X21	Y21	Z21	X22	Y22	Z22	X23	Y23	Z23	X24	Y24	Z24	X25	Y25	Z25	X26	Y26	Z26	X27	Y27	Z27	
496	4.95	-328.75742	1338.2524	-638.58893	-130.70198	1443.7635	-669.27307	-437.19165	1307.396	-811.3913	-85.674057	994.59662	-544.28864	-342.72659	979.51538	-588.76721	-239.30156	956.06708	-746.07263	-114.1057	979.42273	-727.80756	-408.05408	653.43549	-307.76547	-306.93808	701.86639	-230.9304	-417.87558	597.40546	-249.15323	-361.44681	526.1629	-87.690361	-388.75278	331.87793	-4.1565313	-351.36816	406.82111	43.602432	-297.00391	303.34097	-0.51375592	-504.04584	342.12772	112.15125	-452.24109	389.65399	124.71266	-481.59241	401.68658	160.75079	-47.871555	491.98758	-592.08417	-175.35458	483.38602	-575.00751	-46.512024	435.18311	-625.0799	-143.41193	295.28934	-670.21667	-107.05627	142.35156	-821.75061	-191.00858	145.98425	-777.89496	-163.62668	140.23349	-901.89813	-66.318916	40.542088	-726.77045	-134.85747	54.147991	-699.93439	-143.18684	39.521011	-669.84387
497	4.96	-329.76889	1341.0757	-627.17023	-131.46082	1444.7402	-660.96851	-441.60654	1310.462	-798.06409	-87.297379	995.7467	-535.82288	-345.19211	981.26428	-577.75012	-243.39616	958.24402	-736.12427	-117.9809	981.82574	-719.08154	-412.46729	650.20044	-302.82779	-311.89801	696.52417	-225.2827	-422.08823	592.24615	-245.97015	-364.97989	515.77386	-87.156296	-392.18579	318.75037	-9.3454056	-354.10413	393.02222	39.986355	-300.44223	290.2449	-8.058938	-505.58521	325.74478	109.27892	-453.46542	372.7453	122.41748	-482.56454	383.45538	159.30573	-48.625732	493.51862	-588.08423	-175.67975	483.07181	-569.76178	-47.251221	437.16565	-621.6676	-143.96335	296.7403	-666.74268	-107.67973	144.60294	-819.08557	-191.40515	147.14215	-774.99634	-164.76369	143.88754	-898.65613	-66.535759	40.883461	-726.43585	-134.69308	53.976215	-699.09521	-143.22189	39.55064	-669.84387
498	4.97	-330.80887	1343.7	-615.59601	-132.34126	1445.8862	-652.25909	-445.74121	1313.4708	-784.43781	-89.172127	996.80951	-527.43494	-346.75702	982.13904	-566.84912	-247.46468	960.72992	-726.57385	-122.14426	984.11029	-710.31635	-416.71075	646.58929	-298.22974	-316.53177	690.9762	-219.76616	-426.03244	586.47198	-242.99513	-367.69785	505.18341	-87.172554	-396.12347	305.54742	-14.911298	-356.8989	377.90063	35.866478	-304.63852	276.61121	-15.983982	-507.7998	309.83752	105.85957	-454.98392	356.13062	119.50668	-483.39005	366.15051	157.12956	-49.832706	494.67566	-584.39636	-175.53381	482.93393	-563.34778	-48.746853	438.86603	-618.44037	-144.51141	298.16293	-663.4035	-108.18215	146.72385	-816.70844	-191.96838	148.26701	-772.1571	-165.87067	147.26331	-895.48932	-66.584312	41.102985	-725.98169	-135.43106	53.914722	-698.2937	-143.62071	39.598694	-669.8573
499	4.98	-331.76996	1346.0302	-603.90509	-133.24069	1446.8094	-643.39923	-449.93774	1316.5146	-770.57001	-91.315094	997.53027	-519.02692	-350.16507	984.15118	-555.24725	-252.08188	963.27161	-716.43762	-126.51073	986.27582	-701.42395	-419.87799	642.50787	-293.32312	-319.90598	683.40106	-214.05557	-429.93137	580.79291	-240.12856	-370.87823	493.76999	-87.250443	-400.836	292.15231	-20.837051	-359.75269	362.58871	31.411999	-310.2103	262.08411	-24.212814	-510.14584	294.37393	102.38059	-456.51175	339.75793	116.07198	-483.56168	349.21265	154.59612	-51.262302	496.08725	-580.87128	-177.46275	482.9437	-557.96936	-50.507668	440.62375	-615.21185	-145.45753	299.14728	-660.13068	-109.15265	148.73361	-814.29248	-192.42805	149.38582	-769.59399	-166.96507	150.39249	-892.40491	-66.900452	41.495811	-725.70422	-135.38063	53.446373	-697.7373	-143.16536	39.524723	-669.90338
500	4.99	-332.95703	1347.9873	-591.80707	-134.49634	1447.4805	-634.20074	-453.89673	1319.3832	-756.28369	-93.422501	997.9566	-510.69147	-352.87292	985.33966	-543.93134	-256.72827	965.67139	-706.23517	-131.04442	988.17273	-692.49268	-423.07697	638.05994	-288.54135	-322.42621	675.50079	-208.76466	-433.25067	574.53998	-237.02795	-373.92099	482.186	-87.623077	-406.29062	279.25983	-27.283669	-362.55692	347.18427	26.719288	-316.22293	247.34407	-33.40274	-512.74829	279.6243	98.750916	-458.32559	323.65137	112.41659	-484.34781	332.18219	151.97899	-52.570206	497.67145	-577.23108	-178.58223	482.18573	-552.52472	-51.769753	442.3157	-612.28748	-146.25819	300.67041	-656.89185	-109.6693	150.51302	-812.05945	-193.04459	150.29651	-767.02191	-168.10843	153.30461	-889.4021	-67.146759	41.892975	-725.36768	-135.65721	53.303059	-697.22876	-143.42291	39.619431	-669.94269
501	5	-334.08505	1349.6195	-579.55627	-135.93138	1448.0225	-624.7569	-458.09894	1322.1436	-742.03796	-96.134041	998.49921	-501.96021	-355.53891	986.40076	-532.61505	-261.60635	967.58582	-696.07214	-135.83865	989.75598	-683.57623	-425.92496	633.04626	-283.51129	-323.8609	666.29865	-203.68228	-436.63583	568.4809	-233.71684	-376.58755	470.22913	-88.085869	-412.27484	266.41531	-33.497501	-365.63928	331.33469	21.609266	-323.21097	232.1472	-42.945477	-515.46851	265.2749	95.057213	-459.60458	307.5347	108.95632	-484.65979	315.4881	149.10963	-54.660866	498.83795	-573.77112	-180.26151	482.21216	-547.77148	-53.369076	443.68536	-609.09399	-147.10057	301.24152	-653.43005	-111.09294	152.26549	-809.67157	-194.29643	151.42953	-764.53003	-169.29051	156.08156	-886.36078	-67.306564	42.109035	-725.07861	-135.95164	53.090511	-696.56165	-143.65044	39.655315	-669.74982
502	5.01	-335.39526	1350.8881	-567.0929	-137.54726	1448.4143	-615.00024	-462.2359	1324.5942	-727.64465	-98.456001	998.45728	-493.35651	-358.15646	986.78784	-521.06177	-266.65826	969.16791	-685.69946	-140.80917	991.04944	-674.46478	-428.5542	627.46735	-278.42419	-323.67819	655.45184	-198.90027	-439.94958	561.87274	-230.12692	-379.09338	458.04483	-88.902992	-418.67258	253.88983	-39.792229	-368.198	315.58121	16.011971	-330.95737	217.53847	-53.234432	-518.34949	251.4639	91.355568	-460.49139	292.00558	104.99495	-484.34601	298.60977	146.35367	-56.077595	499.59109	-569.99225	-181.43866	482.2244	-543.63293	-55.193752	444.71939	-605.56848	-148.22446	301.74536	-650.4693	-111.96846	154.0388	-807.36017	-194.51862	151.76363	-761.76855	-170.73972	158.71478	-883.27618	-67.712776	42.352283	-724.73328	-136.22505	52.826267	-696.1264	-143.67204	39.543964	-669.80103
503	5.02	-336.82523	1351.8986	-554.37714	-139.35791	1448.6023	-605.00977	-466.38492	1326.7802	-713.11298	-100.82524	998.12653	-484.61728	-360.81073	986.9245	-509.49646	-271.93774	970.48596	-675.133	-145.97748	991.98413	-665.18994	-431.35132	621.83545	-273.26254	-323.4017	645.07605	-195.06212	-443.77277	555.63226	-226.16505	-381.06287	445.9632	-90.383766	-425.11469	241.65039	-46.189018	-371.16031	300.00879	9.7632656	-339.00784	203.41917	-64.137512	-520.27197	237.64316	88.005951	-461.06558	275.39288	101.46699	-483.54486	282.3985	143.67523	-57.55315	500.1062	-565.82172	-183.58817	483.09805	-540.27045	-56.212948	445.32657	-601.83093	-149.35818	302.3587	-646.99426	-113.26527	155.73149	-804.99811	-195.66199	152.61447	-759.16425	-172.36757	161.27278	-880.15662	-68.021317	42.589436	-724.5246	-136.95901	52.770115	-695.60602	-143.73015	39.660385	-669.83679
